<?xml version="1.0" encoding="iso-8859-1"?>
<!-- Uploaded to: SVG Repo, www.svgrepo.com, Generator: SVG Repo Mixer Tools -->
<svg fill="#000000" height="800px" width="800px" version="1.1" id="Layer_1" xmlns="http://www.w3.org/2000/svg" xmlns:xlink="http://www.w3.org/1999/xlink" 
	 viewBox="0 0 511.997 511.997" xml:space="preserve">
<g>
	<g>
		<path d="M394.149,121.325L275.452,2.629c-5.615-5.615-15.206-1.638-15.206,6.297v118.287c0,5.146,4.173,9.318,9.318,9.318h118.287
			C395.787,136.531,399.764,126.932,394.149,121.325z"/>
	</g>
</g>
<g>
	<g>
		<path d="M396.777,230.397v-68.266c0-4.71-3.823-8.533-8.533-8.533H251.713c-4.71,0-8.533-3.823-8.533-8.533V8.534
			c0-4.71-3.823-8.533-8.533-8.533H46.916c-4.71,0-8.533,3.823-8.533,8.533v469.326c0,4.71,3.823,8.533,8.533,8.533l177.081,0.008
			c3.251,0,6.221-1.852,7.654-4.779c1.434-2.918,1.084-6.4-0.904-8.977c-19.464-25.164-29.892-55.252-30.225-87.09
			c-0.666-64.34,41.557-122.878,103.388-140.695c27.374-7.885,55.73-7.825,81.978-0.256c4.54,1.271,9.258-1.306,10.564-5.837
			C396.974,236.967,396.777,231.523,396.777,230.397z"/>
	</g>
</g>
<g>
	<g>
		<path d="M472.552,367.32c-7.245-56.993-53.264-103.013-110.257-110.257c-83.608-10.624-154.246,60.005-143.614,143.614
			c7.245,56.993,53.264,103.013,110.257,110.257C412.538,521.566,483.176,450.928,472.552,367.32z M405.345,392.536h-46.933
			c-2.355,0-4.267,1.911-4.267,4.267v46.932c0,4.71-3.823,8.533-8.533,8.533c-4.71,0-8.533-3.823-8.533-8.533v-46.932
			c0-2.355-1.911-4.267-4.267-4.267H285.88c-4.71,0-8.533-3.823-8.533-8.533c0-4.71,3.823-8.533,8.533-8.533h46.933
			c2.355,0,4.267-1.911,4.267-4.267V324.27c0-4.71,3.823-8.533,8.533-8.533c4.71,0,8.533,3.823,8.533,8.533v46.933
			c0,2.355,1.911,4.267,4.267,4.267h46.933c4.71,0,8.533,3.823,8.533,8.533C413.878,388.713,410.055,392.536,405.345,392.536z"/>
	</g>
</g>
</svg>